<svg width="135" height="135" viewBox="0 0 135 135" fill="none" xmlns="http://www.w3.org/2000/svg">
<path d="M118.342 103.125C120.931 103.125 123.029 101.026 123.029 98.4375C123.029 95.8487 120.931 93.75 118.342 93.75V103.125ZM76.4381 125.082C75.62 127.538 76.9481 130.192 79.4044 131.01C81.8606 131.827 84.515 130.499 85.3331 128.043L76.4381 125.082ZM17.1731 93.75C14.5842 93.75 12.4856 95.8487 12.4856 98.4375C12.4856 101.026 14.5842 103.125 17.1731 103.125V93.75ZM50.1823 128.043C51.0001 130.499 53.6543 131.827 56.1106 131.01C58.5669 130.192 59.895 127.538 59.0775 125.082L50.1823 128.043ZM26.9125 26.3089C26.2431 23.808 23.6732 22.3233 21.1724 22.9926C18.6716 23.6619 17.1869 26.2318 17.8562 28.7327L26.9125 26.3089ZM2.35869 67.1119C0.199063 68.5394 -0.394437 71.4475 1.03313 73.6069C2.46075 75.7669 5.36875 76.36 7.52837 74.9325L2.35869 67.1119ZM116.775 28.7332C117.444 26.2324 115.959 23.6625 113.459 22.9932C110.958 22.3239 108.388 23.8086 107.719 26.3094L116.775 28.7332ZM127.102 74.9331C129.262 76.3606 132.171 75.7675 133.598 73.6075C135.026 71.4481 134.432 68.54 132.272 67.1125L127.102 74.9331ZM92.7519 16.1639C94.8675 14.6719 95.3725 11.7472 93.8806 9.63169C92.3887 7.51606 89.4637 7.01063 87.3481 8.50275L92.7519 16.1639ZM46.0337 7.16619C43.9508 5.62869 41.0159 6.07081 39.4785 8.15369C37.941 10.2365 38.3831 13.1714 40.466 14.7088L46.0337 7.16619ZM124.856 67.1875C124.856 99.1219 98.9994 125 67.1156 125V134.375C104.187 134.375 134.231 104.289 134.231 67.1875H124.856ZM67.1156 125C35.2313 125 9.375 99.1219 9.375 67.1875H0C0 104.289 30.0434 134.375 67.1156 134.375V125ZM9.375 67.1875C9.375 35.2534 35.2313 9.375 67.1156 9.375V0C30.0434 0 0 30.086 0 67.1875H9.375ZM67.1156 9.375C98.9994 9.375 124.856 35.2534 124.856 67.1875H134.231C134.231 30.086 104.187 0 67.1156 0V9.375ZM68.0575 55.0594L79.5356 63.8381L85.2312 56.3913L73.7525 47.6126L68.0575 55.0594ZM80.0787 65.5438L75.5706 80.15L84.5287 82.915L89.0369 68.3088L80.0787 65.5438ZM74.085 81.25H60.1456V90.625H74.085V81.25ZM58.66 80.15L54.1516 65.5438L45.1936 68.3088L49.702 82.915L58.66 80.15ZM54.695 63.8381L66.1731 55.0594L60.4781 47.6126L48.9997 56.3913L54.695 63.8381ZM118.342 93.75H108.247V103.125H118.342V93.75ZM80.1106 114.051L76.4381 125.082L85.3331 128.043L89.0056 117.012L80.1106 114.051ZM108.247 93.75C104.012 93.75 100.442 93.7431 97.5344 94.075C94.5069 94.4212 91.7275 95.1756 89.205 96.9956L94.6912 104.598C95.4381 104.059 96.4662 103.633 98.5987 103.389C100.852 103.132 103.796 103.125 108.247 103.125V93.75ZM89.0056 117.012C90.4131 112.785 91.3512 109.99 92.3081 107.931C93.2144 105.981 93.9431 105.138 94.6912 104.598L89.205 96.9956C86.6831 98.8156 85.0906 101.215 83.8062 103.98C82.5719 106.636 81.45 110.028 80.1106 114.051L89.0056 117.012ZM17.1731 103.125H27.2674V93.75H17.1731V103.125ZM46.5096 117.012L50.1823 128.043L59.0775 125.082L55.4044 114.051L46.5096 117.012ZM27.2674 103.125C31.7187 103.125 34.6632 103.132 36.9161 103.389C39.049 103.633 40.0767 104.059 40.8241 104.598L46.3099 96.9956C43.7874 95.1756 41.0086 94.4212 37.9807 94.075C35.073 93.7431 31.5026 93.75 27.2674 93.75V103.125ZM55.4044 114.051C54.0652 110.028 52.9431 106.636 51.7091 103.98C50.4244 101.216 48.8319 98.8156 46.3099 96.9956L40.8241 104.598C41.5717 105.138 42.3009 105.981 43.2071 107.931C44.164 109.99 45.1021 112.785 46.5096 117.012L55.4044 114.051ZM17.8562 28.7327L20.4688 38.4943L29.5251 36.0705L26.9125 26.3089L17.8562 28.7327ZM12.0507 60.705L2.35869 67.1119L7.52837 74.9325L17.2204 68.5263L12.0507 60.705ZM20.4688 38.4943C21.6208 42.7986 22.3763 45.6488 22.7111 47.8953C23.0282 50.0226 22.8837 51.1293 22.556 51.9939L31.3222 55.3169C32.4247 52.4088 32.4332 49.5291 31.9837 46.5132C31.5519 43.6164 30.6213 40.1664 29.5251 36.0705L20.4688 38.4943ZM17.2204 68.5263C20.7548 66.19 23.7379 64.2262 25.9812 62.345C28.3171 60.3869 30.2197 58.2256 31.3222 55.3169L22.556 51.9939C22.2284 52.8581 21.6037 53.7813 19.9576 55.1619C18.2188 56.6194 15.7652 58.25 12.0507 60.705L17.2204 68.5263ZM107.719 26.3094L105.106 36.0711L114.162 38.4949L116.775 28.7332L107.719 26.3094ZM117.411 68.5269L127.102 74.9331L132.272 67.1125L122.581 60.7056L117.411 68.5269ZM105.106 36.0711C104.01 40.167 103.079 43.6169 102.647 46.5137C102.198 49.5296 102.206 52.4094 103.309 55.3175L112.075 51.9944C111.747 51.1299 111.603 50.0233 111.92 47.8958C112.255 45.6494 113.01 42.7992 114.162 38.4949L105.106 36.0711ZM122.581 60.7056C118.866 58.2506 116.412 56.62 114.674 55.1619C113.027 53.7818 112.402 52.8587 112.075 51.9944L103.309 55.3175C104.411 58.2262 106.314 60.3875 108.65 62.3456C110.893 64.2269 113.876 66.1906 117.411 68.5269L122.581 60.7056ZM87.3481 8.50275L79.0962 14.3229L84.4994 21.9841L92.7519 16.1639L87.3481 8.50275ZM55.3812 14.0663L46.0337 7.16619L40.466 14.7088L49.8138 21.609L55.3812 14.0663ZM79.0962 14.3229C75.4569 16.8894 73.0456 18.5814 71.0556 19.6701C69.1712 20.7009 68.0862 20.9453 67.1662 20.9353L67.0644 30.3098C70.175 30.3434 72.8806 29.3576 75.5544 27.895C78.1225 26.4903 81.0369 24.4261 84.4994 21.9841L79.0962 14.3229ZM49.8138 21.609C53.2226 24.1252 56.0919 26.2521 58.6287 27.7119C61.2706 29.232 63.9544 30.2761 67.0644 30.3098L67.1662 20.9353C66.2462 20.9254 65.1669 20.6575 63.305 19.5862C61.3387 18.4547 58.9644 16.7109 55.3812 14.0663L49.8138 21.609ZM79.5356 63.8381C79.7994 64.0394 79.9844 64.3119 80.0794 64.6188L89.0369 61.8531C88.3819 59.7312 87.08 57.8056 85.2312 56.3913L79.5356 63.8381ZM80.0794 64.6188C80.1706 64.915 80.1744 65.235 80.0787 65.5438L89.0369 68.3088C89.7019 66.1556 89.6712 63.9087 89.0369 61.8531L80.0794 64.6188ZM105.899 49.3252L82.7644 58.905L86.3512 67.5669L109.486 57.9869L105.899 49.3252ZM73.7525 47.6126C71.7944 46.1149 69.4525 45.3651 67.1156 45.3651V54.74C67.4494 54.74 67.7781 54.8456 68.0575 55.0594L73.7525 47.6126ZM67.1156 45.3651C64.7787 45.3651 62.4362 46.1149 60.4781 47.6126L66.1731 55.0594C66.4525 54.8456 66.7812 54.74 67.1156 54.74V45.3651ZM71.8031 50.0526V25.6226H62.4281V50.0526H71.8031ZM75.5706 80.15C75.4744 80.4631 75.2887 80.725 75.045 80.9169L80.845 88.2825C82.5469 86.9425 83.8569 85.0913 84.5287 82.915L75.5706 80.15ZM75.045 80.9169C74.775 81.13 74.4419 81.25 74.085 81.25V90.625C76.6019 90.625 78.9662 89.7619 80.845 88.2825L75.045 80.9169ZM95.4944 97.7312L81.4912 81.5337L74.3987 87.6656L88.4025 103.863L95.4944 97.7312ZM60.1456 81.25C59.7887 81.25 59.4556 81.13 59.1856 80.9169L53.3857 88.2825C55.2644 89.7619 57.6287 90.625 60.1456 90.625V81.25ZM59.1856 80.9169C58.9419 80.725 58.7562 80.4631 58.66 80.15L49.702 82.915C50.3737 85.0913 51.6839 86.9425 53.3857 88.2825L59.1856 80.9169ZM47.2537 103.692L59.9725 87.495L52.599 81.705L39.8802 97.9019L47.2537 103.692ZM54.1516 65.5438C54.0562 65.235 54.0601 64.915 54.1516 64.6188L45.1937 61.8531C44.5593 63.9087 44.5291 66.1556 45.1936 68.3088L54.1516 65.5438ZM54.1516 64.6188C54.2462 64.3119 54.4316 64.0394 54.695 63.8381L48.9997 56.3913C47.1507 57.8056 45.8487 59.7312 45.1937 61.8531L54.1516 64.6188ZM51.4931 58.9163L28.7596 49.3358L25.1187 57.975L47.8522 67.5556L51.4931 58.9163Z" fill="white"/>
</svg>
