<svg width="118" height="118" viewBox="0 0 118 118" fill="none" xmlns="http://www.w3.org/2000/svg">
<path d="M2.5 40H115M27.5 2.5V15M90 2.5V15M21.25 58.75H33.75M52.5 58.75H65M83.75 58.75H96.25M21.25 77.5H33.75M52.5 77.5H65M83.75 77.5H96.25M21.25 96.25H33.75M52.5 96.25H65M83.75 96.25H96.25M22.5 115H95C102.001 115 105.501 115 108.175 113.637C110.527 112.439 112.439 110.527 113.637 108.175C115 105.501 115 102.001 115 95V35C115 27.9993 115 24.499 113.637 21.8251C112.439 19.4731 110.527 17.5608 108.175 16.3624C105.501 15 102.001 15 95 15H22.5C15.4994 15 11.999 15 9.32513 16.3624C6.97306 17.5608 5.06081 19.4731 3.86244 21.8251C2.5 24.499 2.5 27.9993 2.5 35V95C2.5 102.001 2.5 105.501 3.86244 108.175C5.06081 110.527 6.97306 112.439 9.32513 113.637C11.999 115 15.4993 115 22.5 115Z" stroke="white" stroke-width="5" stroke-linecap="round"/>
</svg>
