<svg width="150" height="170" viewBox="0 0 150 170" fill="none" xmlns="http://www.w3.org/2000/svg">
<path d="M135.073 132.693L104.919 120.339C99.8849 118.018 96.6717 112.972 96.6717 107.438V102.981C96.6717 100.878 97.0073 98.7841 97.7037 96.791C97.7037 96.791 116.666 71.4263 116.666 48.0295C116.666 18.7959 98.0146 0 75 0C51.994 0 33.3342 18.7965 33.3342 48.0295C33.3342 71.4263 52.3129 96.791 52.3129 96.791C52.9927 98.7841 53.345 100.878 53.345 102.981V107.438C53.345 112.972 50.1065 118.018 45.0804 120.339L14.9262 132.693C7.92034 135.914 2.92811 142.373 1.55239 149.976L0 170H75H150L148.465 149.976C147.071 142.374 142.079 135.915 135.073 132.693Z" fill="white"/>
</svg>
